<svg width="1058" height="785" viewBox="0 0 1058 785" fill="none" xmlns="http://www.w3.org/2000/svg">
<g clip-path="url(#clip0)">
<path d="M189.802 109.432C184.322 116.082 182.212 125.432 179.852 134.222C160.852 205.062 114.032 262.042 60.7121 302.742C38.1321 319.982 10.6421 343.102 15.5821 374.012C18.2421 390.612 29.9121 402.832 38.5821 416.352C56.7721 444.662 62.6721 483.142 54.0021 517.032C44.1421 555.592 16.5821 591.572 25.1121 630.562C30.3721 654.562 48.2321 671.642 65.4021 686.322C92.1887 709.209 119.829 730.649 148.322 750.642C167.422 764.042 187.742 777.082 210.002 778.782C229.602 780.282 248.802 772.832 267.412 765.482C283.672 759.052 300.342 752.362 313.472 739.482C322.042 731.072 328.872 720.222 338.392 713.342C360.752 697.182 389.472 707.422 415.112 714.342C475.612 730.582 540.362 724.652 597.932 697.602C686.242 656.102 753.552 568.952 839.932 522.192C877.072 502.082 917.472 489.602 951.862 463.702C971.237 448.956 987.887 430.938 1001.06 410.462C1027.06 370.352 1041.12 319.212 1037.06 269.152C1033 219.092 1010.25 170.852 974.522 142.592C936.272 112.342 887.962 106.692 844.442 88.5322C799.502 69.7721 759.522 37.5322 715.012 17.4022C678.996 1.15881 639.8 -6.81499 600.3 -5.93422C560.8 -5.05344 521.998 4.65956 486.742 22.4922C438.302 46.9922 389.202 104.152 335.252 108.492C296.812 111.492 219.822 73.0122 189.802 109.432Z" fill="url(#paint0_linear)"/>
<path d="M387 554.303L344.293 512.159L330.947 525.683L373.654 567.827L387 554.303Z" fill="#6C656C"/>
<path d="M354.48 491.99C354.48 491.99 379.27 478.91 388.85 470.49C394.617 465.444 400.818 460.917 407.38 456.96L438.48 438.03L503.48 433.03L506.48 444.03C506.48 444.03 511.48 460.03 461.48 474.03C411.48 488.03 386.48 510.03 386.48 510.03C386.48 510.03 354.48 520.99 354.48 491.99Z" fill="#DB8B8B"/>
<path opacity="0.1" d="M389.13 507.86C387.36 509.21 386.48 509.99 386.48 509.99C386.48 509.99 354.48 520.99 354.48 491.99C354.48 491.99 356.03 491.17 358.48 489.8C360.955 493.831 364.423 497.16 368.551 499.469C372.679 501.778 377.33 502.99 382.06 502.99H385.45L389.13 507.86Z" fill="black"/>
<path opacity="0.05" d="M505.54 449.55C502.76 455.44 493.17 465.12 461.48 473.99C420.87 485.36 396.75 501.99 389.13 507.86C387.36 509.21 386.48 509.99 386.48 509.99C386.48 509.99 354.48 520.99 354.48 491.99C354.48 491.99 356.03 491.17 358.48 489.8C365.91 485.73 381.64 476.8 388.82 470.45C394.586 465.403 400.787 460.875 407.35 456.92L438.45 437.99L450.03 437.1L503.45 432.99L506.45 443.99C506.45 443.99 507.15 446.14 505.54 449.55Z" fill="black"/>
<path d="M354.98 485.49L328.48 502.99L406.08 567.99C406.08 567.99 417.48 560.99 411.48 552.99C411.48 552.99 391.48 535.99 390.48 511.99L384.48 503.99H381.09C375.358 503.991 369.767 502.211 365.089 498.897C360.412 495.583 356.88 490.898 354.98 485.49Z" fill="#ABB1D1"/>
<path opacity="0.1" d="M505.54 449.55C489.54 441.82 450.48 440.99 450.48 440.99L450.06 437.1L503.48 432.99L506.48 443.99C506.48 443.99 507.15 446.14 505.54 449.55Z" fill="black"/>
<path d="M450.48 438.99C450.48 438.99 497.48 439.99 509.48 449.99L503.48 328.99H438.48L450.48 438.99Z" fill="#ABB1D1"/>
<path opacity="0.05" d="M450.48 438.49C450.48 438.49 497.48 439.49 509.48 449.49L503.48 328.49H438.48L450.48 438.49Z" fill="black"/>
<path d="M488.24 364.95C488.24 364.95 605.89 360.95 608.29 376.16C610.69 391.37 490.64 384.96 490.64 384.96C490.64 384.96 481.04 375.35 488.24 364.95Z" fill="#535461"/>
<path opacity="0.05" d="M488.24 364.95C488.24 364.95 605.89 360.95 608.29 376.16C610.69 391.37 490.64 384.96 490.64 384.96C490.64 384.96 481.04 375.35 488.24 364.95Z" fill="black"/>
<path d="M393 425.78H372.19V606.66H393V425.78Z" fill="#645F67"/>
<path opacity="0.1" d="M393 425.77V439.7C386.08 440.6 379 441.17 372.19 441.39V425.77H393Z" fill="black"/>
<path d="M391.44 410.78C388.52 410.554 385.616 410.164 382.74 409.61C371.46 407.45 343.02 402.92 335.37 410.61C325.77 420.21 328.97 437.02 354.58 439.42C380.19 441.82 424.21 435.42 433.02 425.81C433.02 425.77 417.09 412.75 391.44 410.78Z" fill="#535461"/>
<path d="M387.4 475.4L605.9 407.37L613.1 424.18L389 501.01L387.4 475.4Z" fill="#6C656C"/>
<path d="M452.23 582.65L609.9 427.38L618.7 440.18L468.23 597.05L452.23 582.65Z" fill="#6C656C"/>
<path opacity="0.1" d="M653.58 529.85C648.584 531.142 643.712 532.872 639.02 535.02L629.46 508.31C634.477 506.123 639.644 504.295 644.92 502.84L653.58 529.85Z" fill="black"/>
<path d="M680.33 608.26L669.13 614.66L590.99 396.33L587.49 386.56L605.9 376.15L610.51 390.53L680.33 608.26Z" fill="#6C656C"/>
<path opacity="0.1" d="M610.51 390.53L590.99 396.33L587.49 386.56L605.9 376.15L610.51 390.53Z" fill="black"/>
<path d="M491.44 407.37L601.09 369.75C601.09 369.75 620.3 372.15 613.09 388.16L502.65 420.97C502.65 420.97 485.85 422.57 491.44 407.37Z" fill="#535461"/>
<path opacity="0.1" d="M367.79 615.86C367.789 621.994 367.314 628.119 366.37 634.18C356.77 633.49 346.85 632.49 337.13 631.49C339.289 619.599 339.021 607.394 336.34 595.61C345.81 593.61 355.48 591.7 364.92 589.97C366.833 598.467 367.795 607.15 367.79 615.86Z" fill="black"/>
<path opacity="0.1" d="M393 585.38V606.65H372.19V588.65C379.39 587.4 386.39 586.29 393 585.38Z" fill="black"/>
<path d="M258.54 615.49C258.54 615.49 426.62 571.49 440.22 588.28C453.82 605.07 468.23 627.49 425.85 635.49C383.47 643.49 255.37 621.88 255.37 621.88L258.54 615.49Z" fill="#6C656C"/>
<path opacity="0.1" d="M341.21 541.37L319.85 560.92C316.067 556.064 311.791 551.614 307.09 547.64L327.03 526.81C332.164 531.249 336.908 536.12 341.21 541.37Z" fill="black"/>
<path d="M252.94 606.66L378.59 475.4L382.6 505.81L259.34 618.66L252.94 606.66Z" fill="#6C656C"/>
<path opacity="0.1" d="M251.34 628.27C258.415 628.27 264.15 622.535 264.15 615.46C264.15 608.385 258.415 602.65 251.34 602.65C244.265 602.65 238.53 608.385 238.53 615.46C238.53 622.535 244.265 628.27 251.34 628.27Z" fill="black"/>
<path d="M259.725 720.778L253.455 622.838L253.325 622.628L247.005 624.828L217.925 709.678L171.675 676.888L245.345 623.478L245.415 623.268L245.835 623.118L250.585 619.668L173.345 576.358L154.425 597.158L157.425 616.658L246.245 618.278V620.278L155.765 618.658L152.345 596.518L178.245 568.058L216.995 522.858L217.685 524.728L225.885 515.728L256.345 521.188V519.978L258.345 520.038V521.548L303.705 529.668L261.415 614.278L255.245 618.748V619.248V619.808L353.045 585.728L341.435 676.938L258.435 624.068L255.515 622.428L304.455 701.308L259.725 720.778ZM255.725 626.438L261.575 717.818L301.625 700.438L255.725 626.438ZM175.145 676.868L216.935 706.498L244.275 626.758L175.145 676.868ZM257.465 621.208L259.555 622.378L339.905 673.578L350.705 588.708L257.465 621.208ZM250.365 614.008L252.875 618.058L253.315 617.738L256.315 523.208L226.575 517.888L218.415 526.888L250.365 614.008ZM174.945 574.948L249.785 616.948L248.485 614.818L216.905 528.548L179.715 569.418L174.945 574.948ZM258.345 523.558L255.345 616.278L259.865 612.998L300.775 531.178L258.345 523.558Z" fill="#535461"/>
<path d="M369.415 593.738C365.405 575.919 357.285 559.283 345.705 545.158C341.406 539.909 336.666 535.038 331.535 530.598C311.809 513.567 286.986 503.568 260.962 502.17C234.938 500.771 209.187 508.053 187.749 522.873C166.311 537.693 150.401 559.211 142.515 584.05C134.629 608.89 135.214 635.645 144.178 660.116C153.142 684.587 169.978 705.39 192.042 719.258C214.107 733.127 240.152 739.277 266.09 736.743C292.028 734.208 316.39 723.134 335.353 705.257C354.317 687.379 366.807 663.712 370.865 637.968C371.809 631.907 372.284 625.783 372.285 619.648C372.292 610.932 371.329 602.242 369.415 593.738ZM254.225 708.088C235.993 708.069 218.209 702.435 203.292 691.953C188.374 681.47 177.047 666.648 170.851 649.501C164.655 632.354 163.89 613.715 168.66 596.118C173.43 578.521 183.505 562.82 197.513 551.15C211.521 539.48 228.783 532.408 246.953 530.895C265.122 529.381 283.316 533.501 299.062 542.693C314.807 551.884 327.34 565.703 334.956 582.268C342.571 598.834 344.9 617.343 341.625 635.278C337.875 655.722 327.076 674.203 311.107 687.506C295.137 700.809 275.01 708.093 254.225 708.088Z" fill="#535461"/>
<path d="M254.225 632.058C261.3 632.058 267.035 626.323 267.035 619.248C267.035 612.174 261.3 606.438 254.225 606.438C247.15 606.438 241.415 612.174 241.415 619.248C241.415 626.323 247.15 632.058 254.225 632.058Z" fill="#535461"/>
<path opacity="0.1" d="M675.13 627.07C682.205 627.07 687.94 621.335 687.94 614.26C687.94 607.185 682.205 601.45 675.13 601.45C668.055 601.45 662.32 607.185 662.32 614.26C662.32 621.335 668.055 627.07 675.13 627.07Z" fill="black"/>
<path d="M684.847 719.78L678.587 621.88L678.457 621.67L672.137 623.87L643.047 708.68L596.797 675.88L670.487 622.47L670.557 622.26L670.977 622.11L675.727 618.66L598.487 575.35L579.557 596.15L582.557 615.65L671.357 617.23V619.23L580.877 617.61L577.477 595.5L603.367 567.05L642.087 521.88L642.777 523.75L650.977 514.75L681.517 520.22V519.01L683.517 519.07V520.58L728.877 528.7L686.547 613.35L680.377 617.82V618.32V618.88L778.187 584.8L766.577 676.01L683.577 623.14L680.657 621.5L729.597 700.39L684.847 719.78ZM680.847 625.44L686.697 716.82L726.747 699.44L680.847 625.44ZM600.277 675.88L642.067 705.51L669.407 625.77L600.277 675.88ZM682.597 620.22L684.687 621.39L765.037 672.59L775.837 587.72L682.597 620.22ZM675.497 613.02L678.007 617.07L678.447 616.75L681.447 522.22L651.707 516.88L643.547 525.88L675.497 613.02ZM600.107 573.97L674.947 615.97L673.647 613.84L642.067 527.57L604.867 568.45L600.107 573.97ZM683.477 522.58L680.477 615.27L684.997 611.99L725.907 530.17L683.477 522.58Z" fill="#535461"/>
<path d="M679.757 501C669.144 500.988 658.578 502.415 648.347 505.24C643.071 506.695 637.904 508.523 632.887 510.71C606.157 522.297 584.674 543.387 572.594 569.898C560.514 596.41 558.697 626.459 567.492 654.233C576.287 682.008 595.071 705.533 620.209 720.259C645.348 734.984 675.054 739.863 703.582 733.952C732.109 728.04 757.431 711.759 774.648 688.257C791.865 664.755 799.754 635.702 796.789 606.72C793.823 577.738 780.215 550.885 758.595 531.356C736.975 511.828 708.881 501.012 679.747 501H679.757ZM679.357 707.09C659.076 707.082 639.408 700.137 623.62 687.407C607.831 674.678 596.872 656.931 592.562 637.113C588.252 617.295 590.851 596.599 599.928 578.463C609.004 560.326 624.011 545.84 642.457 537.41C647.149 535.262 652.021 533.532 657.017 532.24C669.229 529.07 681.977 528.537 694.411 530.678C706.845 532.818 718.681 537.581 729.13 544.652C739.58 551.722 748.404 560.937 755.015 571.683C761.627 582.429 765.873 594.46 767.473 606.975C769.073 619.49 767.989 632.202 764.293 644.265C760.598 656.329 754.375 667.467 746.04 676.939C737.704 686.41 727.447 693.998 715.951 699.196C704.455 704.395 691.984 707.086 679.367 707.09H679.357Z" fill="#535461"/>
<path d="M679.357 631.06C686.432 631.06 692.167 625.325 692.167 618.25C692.167 611.175 686.432 605.44 679.357 605.44C672.282 605.44 666.547 611.175 666.547 618.25C666.547 625.325 672.282 631.06 679.357 631.06Z" fill="#535461"/>
<path opacity="0.1" d="M448.22 628.27C462.364 628.27 473.83 616.804 473.83 602.66C473.83 588.516 462.364 577.05 448.22 577.05C434.076 577.05 422.61 588.516 422.61 602.66C422.61 616.804 434.076 628.27 448.22 628.27Z" fill="black"/>
<path d="M442.992 600.736L442.984 600.742C439.977 602.991 439.362 607.253 441.611 610.26L461.937 637.441C464.186 640.448 468.448 641.063 471.455 638.814L471.463 638.808C474.471 636.559 475.085 632.297 472.836 629.29L452.51 602.109C450.261 599.102 446 598.487 442.992 600.736Z" fill="#6C63FF"/>
<path d="M565.48 246.99L563.1 277.1C562.826 280.914 562.876 284.744 563.25 288.55C563.56 291.92 563.25 297.82 559.95 306.82C555.713 318.317 553.523 330.467 553.48 342.72V376.99L530.48 372.99C530.48 372.99 531.48 324.99 527.48 316.99C523.48 308.99 530.48 237.99 530.48 237.99L565.48 246.99Z" fill="#DB8B8B"/>
<path opacity="0.05" d="M564.3 261.91L563.1 277.1C562.83 280.911 562.883 284.738 563.26 288.54C563.57 291.91 563.26 297.81 559.96 306.82C555.723 318.317 553.533 330.467 553.49 342.72V376.99L530.49 372.99C530.49 372.99 531.49 324.99 527.49 316.99C524.66 311.32 527.34 274.05 529.15 252.78C529.9 244.03 530.49 237.99 530.49 237.99L565.49 246.99L564.3 261.91Z" fill="black"/>
<path d="M451.5 476.99L442.85 526.19C441.759 532.759 440.086 539.218 437.85 545.49C432.78 559.35 436.02 578.78 438.48 589.38C439.57 594.06 440.48 597.02 440.48 597.02L414.48 611.02L406.48 605.02V601.02L405.48 512.02C399.48 498.02 401.48 477.02 405.48 469.02C406.617 466.392 407.417 463.63 407.86 460.8C409.86 450.08 410.48 435.02 410.48 435.02C410.48 435.02 426.48 408.02 445.48 426.02C452.48 432.65 455.14 441.32 455.7 449.62C456.68 463.83 451.5 476.99 451.5 476.99Z" fill="#DB8B8B"/>
<path opacity="0.1" d="M455.7 449.59C441.83 457.83 417.7 460.16 407.86 460.77C409.86 450.05 410.48 434.99 410.48 434.99C410.48 434.99 426.48 407.99 445.48 425.99C452.48 432.62 455.14 441.29 455.7 449.59Z" fill="black"/>
<path d="M489.48 424.99C478.846 430.653 468.797 437.352 459.48 444.99C443.48 457.99 403.48 458.99 403.48 458.99V443.99C404.48 425.99 387.48 405.99 364.48 349.99C349.79 314.23 353.86 293.99 358.72 283.99C361.48 278.34 364.48 275.99 364.48 275.99L489.48 299.99L493.95 313.39L503.48 341.99C503.48 341.99 468.48 343.99 462.48 346.99C456.48 349.99 460.48 376.99 460.48 376.99C454.48 404.99 489.48 424.99 489.48 424.99Z" fill="#ABB1D1"/>
<path opacity="0.1" d="M565.48 246.99L564.3 261.91C546.9 266.91 534.48 250.99 534.48 250.99C532.665 251.477 530.882 252.074 529.14 252.78C529.89 244.03 530.48 237.99 530.48 237.99L565.48 246.99Z" fill="black"/>
<path opacity="0.1" d="M493.95 313.39C493.48 318.06 493.48 320.99 493.48 320.99C493.48 320.99 470.48 339.99 431.48 310.99C392.48 281.99 357.48 289.99 357.48 289.99C357.48 289.99 357.89 287.67 358.72 283.99C361.48 278.34 364.48 275.99 364.48 275.99L489.48 299.99L493.95 313.39Z" fill="black"/>
<path d="M578.96 207.94C576.35 228.29 575.48 253.94 575.48 253.94C552.48 271.94 534.48 248.94 534.48 248.94C512.76 254.77 502.55 273.78 497.74 290.37C495.164 299.344 493.732 308.607 493.48 317.94C493.48 317.94 487.4 322.94 476.2 323.94C465.61 324.83 450.43 322.07 431.48 307.94C392.48 278.94 357.48 286.94 357.48 286.94C357.48 286.94 364.48 246.94 380.48 234.94C396.48 222.94 408.48 207.94 428.48 161.94C448.48 115.94 489.48 126.94 489.48 126.94C489.48 126.94 491.48 117.94 528.48 126.94C537.492 129.302 545.834 133.721 552.85 139.85C572.64 156.49 582.24 182.3 578.96 207.94Z" fill="white"/>
<path d="M541.85 149.49C541.8 150.82 541.69 152.3 541.51 153.95C539.51 171.95 537.51 169.95 515.51 173.95C501.83 176.44 494.72 165.01 491.3 156.01C490.062 152.75 489.128 149.382 488.51 145.95L536.51 137.95C536.51 137.95 542.26 136.34 541.85 149.49Z" fill="#DB8B8B"/>
<path opacity="0.05" d="M497.74 290.42C495.164 299.394 493.732 308.657 493.48 317.99C493.48 317.99 487.4 322.99 476.2 323.99C475.884 323.353 475.643 322.682 475.48 321.99C473.48 312.99 458.48 296.99 458.48 296.99C448.48 287.99 446.48 271.99 446.48 271.99L429.98 223.49L424.48 218.99C424.48 218.99 447.48 200.99 467.48 215.99C487.48 230.99 481.48 262.99 481.48 262.99L485.48 273.99C489.63 277.49 493.85 283.66 497.74 290.42Z" fill="black"/>
<path d="M427.48 217.99L449.48 270.99C449.48 270.99 451.48 286.99 461.48 295.99C461.48 295.99 476.48 311.99 478.48 320.99C480.48 329.99 508.48 353.99 508.48 353.99C508.48 353.99 534.48 377.99 536.48 386.99C536.48 386.99 560.48 393.99 557.48 407.99C557.48 407.99 575.48 389.99 557.48 372.99C539.48 355.99 515.48 320.99 515.48 320.99C515.48 320.99 501.48 283.99 488.48 272.99L484.48 261.99C484.48 261.99 490.48 229.99 470.48 214.99C450.48 199.99 427.48 217.99 427.48 217.99Z" fill="#DB8B8B"/>
<path opacity="0.1" d="M440.48 596.99L414.48 610.99L406.48 604.99V600.99C415.464 600.352 424.193 597.718 432.03 593.28C434.43 591.92 436.69 590.58 438.5 589.4C439.55 594.03 440.48 596.99 440.48 596.99Z" fill="black"/>
<path opacity="0.1" d="M470.48 175.99L484.48 230.99C484.48 230.99 441.48 237.99 432.48 230.99C423.48 223.99 406.48 221.99 406.48 221.99C406.48 221.99 424.48 169.99 434.48 163.99C444.48 157.99 470.48 175.99 470.48 175.99Z" fill="black"/>
<path d="M470.48 173.99L484.48 228.99C484.48 228.99 441.48 235.99 432.48 228.99C423.48 221.99 406.48 219.99 406.48 219.99C406.48 219.99 424.48 167.99 434.48 161.99C444.48 155.99 470.48 173.99 470.48 173.99Z" fill="white"/>
<path opacity="0.1" d="M541.85 148.49C539.049 152.356 535.487 155.609 531.383 158.047C527.278 160.485 522.718 162.058 517.983 162.669C513.248 163.28 508.439 162.915 503.85 161.598C499.261 160.281 494.99 158.039 491.3 155.01C490.062 151.75 489.128 148.382 488.51 144.95L536.51 136.95C536.51 136.95 542.26 135.34 541.85 148.49Z" fill="black"/>
<path d="M548.48 126.99C548.48 136.273 544.793 145.175 538.229 151.739C531.665 158.303 522.763 161.99 513.48 161.99C504.197 161.99 495.295 158.303 488.731 151.739C482.168 145.175 478.48 136.273 478.48 126.99C478.48 126.41 478.48 125.83 478.48 125.25C478.711 115.967 482.62 107.157 489.346 100.756C496.073 94.3555 505.067 90.8893 514.35 91.12C523.633 91.3508 532.443 95.2595 538.844 101.986C545.245 108.713 548.711 117.707 548.48 126.99Z" fill="#DB8B8B"/>
<path opacity="0.1" d="M548.48 126.99C548.483 130.216 548.039 133.426 547.16 136.53C544.455 137.12 541.633 136.861 539.08 135.79C535.34 134.32 532.13 131.79 528.54 129.97C518.43 124.85 506.4 125.86 495.2 127.55C489.64 128.39 483.33 129.17 478.96 125.63C478.81 125.511 478.666 125.385 478.53 125.25C478.761 115.967 482.67 107.157 489.396 100.756C496.123 94.3555 505.117 90.8893 514.4 91.12C523.683 91.3508 532.493 95.2595 538.894 101.986C545.295 108.713 548.761 117.707 548.53 126.99H548.48Z" fill="black"/>
<path d="M452.624 107.927C454.754 114.607 464.984 114.817 470.234 119.737C472.964 122.297 474.234 126.077 477.234 128.357C481.404 131.537 487.424 130.837 492.734 130.077C503.424 128.557 514.904 127.647 524.544 132.257C527.964 133.887 531.034 136.167 534.604 137.497C538.174 138.827 542.604 138.987 545.504 136.627C547.824 134.737 548.674 131.627 550.774 129.547C552.404 127.907 554.674 126.987 556.534 125.547C560.614 122.467 562.374 117.447 563.534 112.647C565.934 102.767 566.624 92.1167 562.534 82.7467C558.444 73.3767 548.604 65.7467 537.864 66.2367C534.574 66.3867 531.364 67.2367 528.084 67.5967C519.534 68.4667 511.084 65.5967 502.504 65.1067C500.015 64.8039 497.49 65.1483 495.174 66.1067C493.427 67.0775 491.92 68.4273 490.764 70.0567C486.836 75.2021 484.146 81.1836 482.904 87.5367C481.904 92.3267 481.854 96.6667 475.984 97.4067C469.314 98.2867 448.114 93.7967 452.624 107.927Z" fill="#472727"/>
<path opacity="0.05" d="M384.98 234.49C384.98 234.49 410.98 241.49 418.98 259.49C426.98 277.49 448.62 280.78 448.62 280.78" fill="black"/>
<path d="M482.98 630.49H422.98V649.49H482.98V630.49Z" fill="#6C656C"/>
<path d="M431.99 595.23C437.36 592.23 442.07 589.23 442.48 587.99C442.48 587.99 456.03 602.29 468.1 606.73C472.159 608.229 476.044 610.16 479.69 612.49C484.47 615.49 491.29 619.02 497.48 619.02C497.48 619.02 511.48 631.02 484.48 633.02C457.48 635.02 394.48 628.02 394.48 628.02L398.48 603.02C410.167 603.705 421.804 601 431.99 595.23Z" fill="#ABB1D1"/>
</g>
<defs>
<linearGradient id="paint0_linear" x1="-96" y1="619" x2="928" y2="-6.00002" gradientUnits="userSpaceOnUse">
<stop stop-color="#031CFD" stop-opacity="0.7"/>
<stop offset="1" stop-color="#0FA7FD" stop-opacity="0.11"/>
</linearGradient>
<clipPath id="clip0">
<rect width="1057.7" height="784.98" fill="white"/>
</clipPath>
</defs>
</svg>
